<svg xmlns="http://www.w3.org/2000/svg" xmlns:xlink="http://www.w3.org/1999/xlink" enable-background="new 0 0 32 32" viewBox="0 0 32 32"><defs><linearGradient id="a"><stop offset="0" stop-color="#000092"/><stop offset="1" stop-color="#ff00f3"/></linearGradient><linearGradient id="b" x1="7.434" x2="22" y1="16.004" y2="16.004" gradientUnits="userSpaceOnUse" xlink:href="#a"/></defs><path fill="url(#b)" d="M 10.205078 6.1679688 C 10.155328 6.1613438 10.103234 6.1634219 10.052734 6.1699219 C 9.5927344 6.1469219 9.1290781 6.245375 8.7050781 6.484375 C 7.9080781 6.934375 7.4335938 7.7471094 7.4335938 8.6621094 L 7.4335938 23.339844 C 7.4335938 24.254844 7.908125 25.068578 8.703125 25.517578 C 9.090125 25.736578 9.5125938 25.84375 9.9335938 25.84375 C 9.9825937 25.84375 10.029125 25.827219 10.078125 25.824219 C 10.094125 25.826219 10.110953 25.832031 10.126953 25.832031 C 10.190953 25.832031 10.2525 25.815016 10.3125 25.791016 C 10.6275 25.741016 10.937609 25.652516 11.224609 25.478516 L 23.359375 18.138672 C 24.114375 17.681672 24.566406 16.882 24.566406 16 C 24.567406 15.118 24.117328 14.318328 23.361328 13.861328 L 11.226562 6.5234375 C 10.949563 6.3554375 10.649656 6.2658906 10.347656 6.2128906 C 10.302156 6.1888906 10.254828 6.1745937 10.205078 6.1679688 z M 9.8867188 7.1640625 L 17.197266 16.025391 L 9.890625 24.832031 C 9.652625 24.825031 9.4143125 24.767531 9.1953125 24.644531 C 8.7173125 24.375531 8.4335938 23.888844 8.4335938 23.339844 L 8.4335938 8.6621094 C 8.4335938 8.1131094 8.7173125 7.6254688 9.1953125 7.3554688 C 9.4133125 7.2324687 9.6497188 7.1710625 9.8867188 7.1640625 z M 12.009766 8.1640625 L 19.808594 12.880859 L 17.849609 15.242188 L 12.009766 8.1640625 z M 20.673828 13.404297 L 22.84375 14.716797 C 23.29675 14.990797 23.568359 15.471953 23.568359 16.001953 C 23.567359 16.530953 23.29675 17.009203 22.84375 17.283203 L 20.634766 18.619141 L 18.496094 16.027344 L 20.673828 13.404297 z M 17.845703 16.8125 L 19.769531 19.144531 L 12.025391 23.826172 L 17.845703 16.8125 z "/></svg>