<svg width="43" height="32" viewBox="0 0 43 32" fill="none" xmlns="http://www.w3.org/2000/svg">
<path d="M23.4146 30.7357V0.445217C23.4146 0.19941 23.614 0 23.8609 0H42.5536C42.7996 0 43 0.19941 43 0.445217V4.98919C43 5.235 42.8005 5.4344 42.5536 5.4344H29.3036C29.0576 5.4344 28.8572 5.63382 28.8572 5.87962V11.314C28.8572 11.5598 29.0567 11.7592 29.3036 11.7592H39.6314C39.8774 11.7592 40.0778 11.9587 40.0778 12.2045V16.7484C40.0778 16.9942 39.8784 17.1936 39.6314 17.1936H29.3036C29.0576 17.1936 28.8572 17.3931 28.8572 17.6389V25.3003C28.8572 25.5461 29.0567 25.7456 29.3036 25.7456H42.5536C42.7996 25.7456 43 25.945 43 26.1908V30.7347C43 30.9806 42.8005 31.18 42.5536 31.18H23.8609C23.6149 31.18 23.4146 30.9806 23.4146 30.7347V30.7357Z" fill="black"/>
<path d="M29.4373 0.414627L11.6696 11.6921C11.36 11.8886 11.3686 12.3595 11.6848 12.5441L29.4525 22.9064C29.7688 23.091 30.1601 22.8531 30.1601 22.476V0.835164C30.1601 0.450165 29.7545 0.213243 29.4373 0.41364V0.414627Z" fill="#A5E6BA"/>
<path d="M18.084 0H22.4088C22.671 0 22.8837 0.221127 22.8837 0.493588V30.7357C22.8837 30.9815 22.6919 31.1809 22.4554 31.1809H18.084C17.8475 31.1809 17.6557 30.9815 17.6557 30.7357V17.6399C17.6557 17.394 17.4638 17.1946 17.2273 17.1946H5.65729C5.42082 17.1946 5.22898 17.394 5.22898 17.6399V30.7357C5.22898 30.9815 5.03715 31.1809 4.80068 31.1809H0.42831C0.191837 31.1809 0 30.9815 0 30.7357V0.445217C0 0.19941 0.191837 0 0.42831 0H4.79973C5.0362 0 5.22803 0.19941 5.22803 0.445217V11.314C5.22803 11.5598 5.41987 11.7592 5.65634 11.7592H17.2264C17.4629 11.7592 17.6547 11.5598 17.6547 11.314V0.445217C17.6547 0.19941 17.8465 0 18.083 0H18.084Z" fill="black"/>
</svg>
